<svg width="32" height="32" viewBox="0 0 32 32" fill="none" xmlns="http://www.w3.org/2000/svg">
<path d="M16 0C7.16429 0 0 7.16429 0 16C0 24.8357 7.16429 32 16 32C24.8357 32 32 24.8357 32 16C32 7.16429 24.8357 0 16 0ZM22.8571 16.8571C22.8571 17.0143 22.7286 17.1429 22.5714 17.1429H17.1429V22.5714C17.1429 22.7286 17.0143 22.8571 16.8571 22.8571H15.1429C14.9857 22.8571 14.8571 22.7286 14.8571 22.5714V17.1429H9.42857C9.27143 17.1429 9.14286 17.0143 9.14286 16.8571V15.1429C9.14286 14.9857 9.27143 14.8571 9.42857 14.8571H14.8571V9.42857C14.8571 9.27143 14.9857 9.14286 15.1429 9.14286H16.8571C17.0143 9.14286 17.1429 9.27143 17.1429 9.42857V14.8571H22.5714C22.7286 14.8571 22.8571 14.9857 22.8571 15.1429V16.8571Z" fill="white"/>
</svg>
