<svg width="32" height="32" viewBox="0 0 32 32" fill="none" xmlns="http://www.w3.org/2000/svg">
<g clip-path="url(#clip0_1_880)">
<path d="M9.6 7.97278C9.17565 7.97278 8.76869 8.14135 8.46863 8.44141C8.16857 8.74147 8 9.14843 8 9.57278C8 9.99712 8.16857 10.4041 8.46863 10.7041C8.76869 11.0042 9.17565 11.1728 9.6 11.1728H22.4C22.8243 11.1728 23.2313 11.0042 23.5314 10.7041C23.8314 10.4041 24 9.99712 24 9.57278C24 9.14843 23.8314 8.74147 23.5314 8.44141C23.2313 8.14135 22.8243 7.97278 22.4 7.97278H9.6Z" fill="white"/>
<path d="M8 16C8 15.5757 8.16857 15.1687 8.46863 14.8687C8.76869 14.5686 9.17565 14.4 9.6 14.4H22.4C22.8243 14.4 23.2313 14.5686 23.5314 14.8687C23.8314 15.1687 24 15.5757 24 16C24 16.4244 23.8314 16.8313 23.5314 17.1314C23.2313 17.4315 22.8243 17.6 22.4 17.6H9.6C9.17565 17.6 8.76869 17.4315 8.46863 17.1314C8.16857 16.8313 8 16.4244 8 16Z" fill="white"/>
<path d="M9.6 20.8271C9.17565 20.8271 8.76869 20.9957 8.46863 21.2958C8.16857 21.5958 8 22.0028 8 22.4271C8 22.8515 8.16857 23.2585 8.46863 23.5585C8.76869 23.8586 9.17565 24.0272 9.6 24.0272H22.4C22.8243 24.0272 23.2313 23.8586 23.5314 23.5585C23.8314 23.2585 24 22.8515 24 22.4271C24 22.0028 23.8314 21.5958 23.5314 21.2958C23.2313 20.9957 22.8243 20.8271 22.4 20.8271H9.6Z" fill="white"/>
<path fill-rule="evenodd" clip-rule="evenodd" d="M32 16C32 24.8368 24.8368 32 16 32C7.1632 32 0 24.8368 0 16C0 7.1632 7.1632 0 16 0C24.8368 0 32 7.1632 32 16ZM28.8 16C28.8 19.3948 27.4514 22.6505 25.051 25.051C22.6505 27.4514 19.3948 28.8 16 28.8C12.6052 28.8 9.3495 27.4514 6.94903 25.051C4.54857 22.6505 3.2 19.3948 3.2 16C3.2 12.6052 4.54857 9.3495 6.94903 6.94903C9.3495 4.54857 12.6052 3.2 16 3.2C19.3948 3.2 22.6505 4.54857 25.051 6.94903C27.4514 9.3495 28.8 12.6052 28.8 16Z" fill="white"/>
</g>
<defs>
<clipPath id="clip0_1_880">
<rect width="32" height="32" fill="white"/>
</clipPath>
</defs>
</svg>
